<?xml version="1.0" encoding="UTF-8"?>
<svg id="Layer_1" xmlns="http://www.w3.org/2000/svg" version="1.1" viewBox="40 295 1320 138">
  <!-- Generator: Adobe Illustrator 30.2.1, SVG Export Plug-In . SVG Version: 2.1.1 Build 1)  -->
  <path d="M116.93,314.13c0-14.46-13.73-18.07-24.58-18.07v2.17c6.51,0,11.57,2.17,11.57,7.23,0,2.89-2.17,7.23-8.67,7.23-5.06,0-15.9-2.89-23.85-5.78-9.4-3.61-18.07-6.51-25.3-6.51-14.46,0-24.58,10.84-24.58,23.13,0,10.84,7.95,14.46,10.84,15.9l.72-1.45c-1.45-1.45-3.61-2.89-3.61-7.23,0-2.89,2.89-7.95,10.12-7.95,6.51,0,15.18,2.89,26.75,6.51,10.12,2.89,20.96,5.06,26.75,5.78v22.41l-10.84,9.4v.72l10.84,9.4v31.08c-5.78,3.61-12.29,4.34-18.07,4.34-10.84,0-20.24-2.89-28.19-11.57l29.64-14.46v-49.88l-36.14,15.9c2.89-9.4,10.84-15.9,18.79-20.24l-.72-2.17c-21.69,5.78-41.2,26.02-41.2,50.6,0,28.92,23.85,50.6,50.6,50.6,28.92,0,47.71-23.13,47.71-46.99h-1.45c-4.34,9.4-10.84,18.07-18.79,22.41v-29.64l11.57-9.4v-.72l-11.57-9.4v-22.41c10.84,0,21.69-7.23,21.69-20.96ZM54.04,393.65l-8.67,4.34c-5.06-6.51-7.95-15.18-7.95-27.47,0-5.06,0-10.84,1.45-15.18l15.18-6.51v44.82ZM130.66,410.27l-9.4,7.23,1.45,1.45,4.34-3.61,15.9,14.46,21.69-14.46-.72-1.45-5.78,3.61-7.23-7.23v-49.16l5.78-4.34,12.29,10.12v44.1c0,27.47-5.78,31.81-18.07,36.14v2.17c20.24.72,39.04-5.78,39.04-41.2v-47.71l6.51-5.06-1.45-1.45-5.78,4.34-18.07-15.18-20.24,15.18v-59.28h-1.45l-25.3,17.35v1.45c2.89,1.45,7.23,2.89,7.23,10.84,0,0-.72,81.69-.72,81.68ZM262.95,402.32l-18.07,13.73-18.07-14.46v-8.67l33.98-23.13v-.72l-17.35-26.02-37.59,20.24v47.71l-7.23,5.78,1.45,1.45,6.51-5.06,24.58,18.07,32.53-26.02s-.72-2.89-.72-2.89ZM226.81,390.03v-35.42l1.45-.72,15.9,25.3s-17.35,10.84-17.35,10.84ZM401.02,307.62c0-2.17-.72-4.34-1.45-6.51h-1.45c-2.17,5.78-5.06,8.67-12.29,8.67-6.51,0-10.84-3.61-13.73-6.51l-20.96,23.85,1.45,1.45,7.23-6.51c4.34,3.61,7.95,6.51,18.07,7.23v60l-42.65-73.01c-3.61-5.78-8.67-13.73-18.79-13.73-11.57,0-21.69,10.12-20.24,26.02h2.17c.72-4.34,2.89-9.4,7.95-9.4,3.61,0,7.23,3.61,9.4,7.23v23.85c-13.01,0-21.69,5.78-21.69,16.63,0,5.78,2.89,14.46,11.57,16.63v-1.45c-1.45-1.45-2.17-2.89-2.17-5.06,0-3.61,2.89-6.51,7.95-6.51h3.61v30.36c-15.18,0-27.47,8.67-27.47,23.13s11.57,20.24,24.58,19.52v-1.45c-7.95-.72-11.57-4.34-11.57-9.4,0-6.51,4.34-9.4,10.12-9.4s10.84,3.61,14.46,7.95l20.96-23.13-1.45-1.45-5.06,5.78c-7.95-7.23-12.29-9.4-21.69-10.84v-72.29l57.83,101.2h4.34v-101.2c10.84-.72,20.96-9.4,20.96-21.69ZM453.79,402.32l-18.07,13.73-18.07-14.46v-8.67l33.98-23.13v-.72l-17.35-26.02-37.59,20.24v47.71l-7.23,5.78,1.45,1.45,6.51-5.06,24.58,18.07,32.53-26.02s-.72-2.89-.72-2.89ZM417.65,390.03v-35.42l1.45-.72,15.9,25.3s-17.35,10.84-17.35,10.84ZM571.62,351l-5.06,3.61-13.73-11.57-15.9,14.46,6.51,6.51v54.22l-17.35-10.84v-44.82l5.78-3.61-16.63-15.9-15.9,14.46,6.51,6.51v52.05l-2.17,1.45-15.18-10.84v-43.37c0-10.12-5.06-13.01-10.84-16.63-5.06-3.61-7.95-5.78-7.95-10.84,0-4.34,4.34-6.51,6.51-7.95v-1.45c-5.78,0-20.96,5.78-20.96,19.52,0,7.23,3.61,10.12,7.23,13.73,3.61,3.61,7.23,6.51,7.23,13.01v41.93l-7.95,5.78,1.45,1.45,7.23-5.78,16.63,14.46,18.07-12.29,20.24,12.29,38.31-22.41v-48.43l9.4-7.23-1.45-1.45h0ZM706.07,311.24l-7.23,6.51-15.9-14.46-23.85,17.35v-15.9h-2.17l.72,117.11c-2.17,0-8.67-1.45-13.73-2.89l-1.45-97.59c0-7.23-5.06-17.35-18.07-17.35s-21.69,10.12-21.69,20.24h2.17c.72-4.34,2.89-7.95,7.23-7.95s7.95,2.89,7.95,12.29v28.19c-13.01.72-20.96,7.95-20.96,17.35,0,5.78,2.89,14.46,11.57,14.46v-1.45c-2.89-1.45-3.61-3.61-3.61-5.06,0-4.34,3.61-5.78,9.4-5.78h2.89v44.82c-10.84,3.61-15.18,11.57-15.18,20.24,0,12.29,9.4,20.96,23.85,20.96,10.12,0,18.79-1.45,27.47-3.61,7.23-1.45,16.63-3.61,20.96-3.61,5.78,0,7.95,2.89,7.95,6.51,0,5.06-2.17,7.23-5.06,7.95v1.45c11.57-2.17,18.79-9.4,18.79-20.24s-10.84-17.35-22.41-17.35c-5.78,0-18.07,2.17-26.75,3.61-10.12,2.17-20.24,3.61-23.13,3.61-5.06,0-10.84-2.17-10.84-9.4,0-5.78,5.06-10.84,17.35-10.84,6.51,0,14.46.72,22.41,2.89,8.67,2.17,16.63,4.34,23.85,4.34,10.84,0,20.24-3.61,20.24-18.79v-88.91l8.67-7.23-1.45-1.45h0ZM676.44,355.33c-2.17,2.17-5.06,4.34-8.67,4.34s-7.23-2.17-8.67-4.34v-31.81l7.23-5.06,10.12,9.4s0,27.47,0,27.47ZM676.44,377.02c-1.45-1.45-5.06-3.61-8.67-3.61s-7.23,2.17-8.67,3.61v-18.79c1.45,1.45,5.06,3.61,8.67,3.61s7.23-2.17,8.67-3.61v18.79ZM676.44,411c0,5.78-3.61,11.57-11.57,11.57h-5.78v-42.65c1.45-1.45,5.06-3.61,8.67-3.61s6.51,2.17,8.67,3.61c0,0,0,31.08,0,31.08ZM775.47,359.67l-23.13-16.63-35.42,20.24v46.99l-7.23,5.78.72,1.45,5.78-4.34,23.13,17.35,36.14-21.69v-49.16ZM736.43,405.21v-52.05l18.07,13.01v51.32s-18.07-12.29-18.07-12.29ZM844.14,344.49h-1.45c-2.17,1.45-4.34,2.89-6.51,2.89-2.89,0-6.51-1.45-7.95-3.61h-1.45l-12.29,13.73-12.29-13.73-21.69,14.46.72,1.45,5.78-3.61,7.23,7.95v45.54l-9.4,7.23,1.45,1.45,4.34-3.61,17.35,14.46,22.41-15.18-.72-1.45-6.51,3.61-8.67-7.23v-50.6c3.61,3.61,7.95,7.23,13.01,7.23,10.12.72,15.9-9.4,16.63-20.96h0ZM930.89,413.89l-24.58,16.63-33.25-50.6,23.85-36.87h1.45c2.89,2.89,7.23,5.78,12.29,5.78s8.67-2.89,10.84-5.78h1.45c-.72,14.46-10.84,23.13-18.07,23.13s-10.84-3.61-15.18-5.78l-2.17,3.61,36.14,53.49,7.23-4.34v.72ZM851.37,410.27l-9.4,7.23,1.45,1.45,4.34-3.61,15.9,14.46,21.69-14.46-1.45-1.45-5.78,3.61-7.23-7.23v-111.32h-.72l-26.02,17.35v1.45c2.89,1.45,7.23,2.17,7.23,10.84,0,0,0,81.69,0,81.69ZM1050.89,314.13c0-14.46-13.73-18.07-24.58-18.07v2.17c6.51,0,11.57,2.17,11.57,7.23,0,2.89-2.17,7.23-8.67,7.23-5.06,0-15.9-2.89-23.85-5.78-9.4-2.89-18.07-5.78-25.3-5.78-14.46,0-24.58,10.84-24.58,23.13,0,10.84,7.95,14.46,10.84,15.9l.72-1.45c-2.17-1.45-4.34-2.89-4.34-7.23,0-2.89,2.89-7.95,10.12-7.95,6.51,0,15.18,2.89,26.75,6.51,10.12,2.89,20.96,5.06,26.75,5.78v22.41l-10.84,9.4v.72l10.84,9.4v31.08c-5.78,3.61-12.29,4.34-18.07,4.34-10.84,0-20.24-2.89-28.19-11.57l29.64-14.46v-50.6l-36.14,15.9c3.61-9.4,11.57-15.9,18.79-20.96l-.72-1.45c-21.69,5.78-41.2,25.3-41.2,49.88,0,28.92,23.85,50.6,50.6,50.6,28.92,0,47.71-23.13,47.71-46.99h-1.45c-4.34,9.4-10.84,18.07-18.79,22.41v-29.64l11.57-9.4v-.72l-10.84-9.4v-21.69c10.84,0,21.69-7.23,21.69-20.96ZM988,393.65l-8.67,4.34c-5.06-6.51-7.95-15.18-7.95-27.47,0-5.06.72-10.84,2.17-15.18l15.18-6.51-.72,44.82ZM1076.19,306.9h-.72l-14.46,12.29v.72l12.29,13.73h1.45l14.46-12.29v-.72l-13.01-13.73h0ZM1097.87,413.89l-5.78,3.61-7.23-7.23v-49.88l7.23-5.06-1.45-1.45-5.06,4.34-13.01-15.18-20.96,14.46,1.45,2.17,5.06-3.61,6.51,7.95v46.99l-9.4,7.23.72,1.45,5.06-3.61,15.9,14.46,21.69-14.46-.72-2.17h0ZM1218.59,413.16l-5.06,3.61-7.95-7.23v-49.16l7.23-5.78-1.45-1.45-5.78,5.06-16.63-15.18-21.69,15.18-16.63-15.18-20.24,15.18-13.01-15.18-20.96,14.46.72,2.17,5.06-3.61,7.23,7.95v46.99l-5.78,5.78,16.63,13.73,15.9-14.46-6.51-6.51v-49.16l6.51-4.34,10.84,10.12v43.37l-5.78,5.78,16.63,13.73,15.9-14.46-6.51-6.51v-47.71l5.78-3.61,11.57,10.12v43.37l-5.06,5.06,16.63,15.18,22.41-15.18v-2.17h0ZM1281.48,402.32l-18.07,13.73-18.07-14.46v-8.67l33.98-23.13v-.72l-17.35-26.02-37.59,20.24v49.16l25.3,18.07,32.53-26.02-.72-2.17ZM1245.34,390.03v-35.42l1.45-.72,15.9,25.3s-17.35,10.84-17.35,10.84ZM1347.27,383.53l-13.73-10.84c9.4-7.95,13.01-18.79,13.01-26.02v-4.34h-1.45c-1.45,3.61-4.34,7.23-10.12,7.23s-9.4-2.89-13.01-7.23l-32.53,18.07v26.02l12.29,9.4c-12.29,10.84-14.46,18.07-14.46,23.85,0,7.23,3.61,12.29,9.4,14.46l.72-1.45c-1.45-1.45-2.89-2.17-2.89-5.78,0-2.17,2.89-5.78,8.67-5.78,7.23,0,11.57,5.06,13.73,7.23l31.08-18.79v-26.02s-.72,0-.72,0ZM1339.31,361.84c-5.06,8.67-15.9,17.35-22.41,21.69l-7.95-6.51v-25.3c2.89,7.23,10.84,13.01,18.79,13.01,5.06,0,7.95-.72,11.57-2.89ZM1327.02,419.67c-3.61-7.95-12.29-13.73-20.96-13.73-2.17,0-7.95,0-13.73,3.61,3.61-5.78,13.01-15.9,25.3-23.13l8.67,7.23.72,26.02h0Z"/>
</svg>